<svg xmlns="http://www.w3.org/2000/svg" xmlns:xlink="http://www.w3.org/1999/xlink" width="2048" zoomAndPan="magnify" viewBox="0 0 1536 863.999991" height="1152" preserveAspectRatio="xMidYMid meet" version="1.0"><defs><g/><clipPath id="ea9d234ac2"><path d="M 1 0.199219 L 226.117188 0.199219 L 226.117188 225.515625 L 1 225.515625 Z M 1 0.199219 " clip-rule="nonzero"/></clipPath><clipPath id="46b9906263"><path d="M 16.339844 0.484375 L 210.863281 0.484375 C 214.910156 0.484375 218.789062 2.09375 221.648438 4.953125 C 224.507812 7.8125 226.117188 11.691406 226.117188 15.738281 L 226.117188 210.261719 C 226.117188 214.308594 224.507812 218.1875 221.648438 221.046875 C 218.789062 223.90625 214.910156 225.515625 210.863281 225.515625 L 16.339844 225.515625 C 12.292969 225.515625 8.414062 223.90625 5.554688 221.046875 C 2.695312 218.1875 1.085938 214.308594 1.085938 210.261719 L 1.085938 15.738281 C 1.085938 11.691406 2.695312 7.8125 5.554688 4.953125 C 8.414062 2.09375 12.292969 0.484375 16.339844 0.484375 Z M 16.339844 0.484375 " clip-rule="nonzero"/></clipPath><clipPath id="1a76d33416"><path d="M 0.0859375 0.484375 L 225.117188 0.484375 L 225.117188 225.515625 L 0.0859375 225.515625 Z M 0.0859375 0.484375 " clip-rule="nonzero"/></clipPath><clipPath id="0604bbc14b"><path d="M 15.339844 0.484375 L 209.863281 0.484375 C 213.910156 0.484375 217.789062 2.09375 220.648438 4.953125 C 223.507812 7.8125 225.117188 11.691406 225.117188 15.738281 L 225.117188 210.261719 C 225.117188 214.308594 223.507812 218.1875 220.648438 221.046875 C 217.789062 223.90625 213.910156 225.515625 209.863281 225.515625 L 15.339844 225.515625 C 11.292969 225.515625 7.414062 223.90625 4.554688 221.046875 C 1.695312 218.1875 0.0859375 214.308594 0.0859375 210.261719 L 0.0859375 15.738281 C 0.0859375 11.691406 1.695312 7.8125 4.554688 4.953125 C 7.414062 2.09375 11.292969 0.484375 15.339844 0.484375 Z M 15.339844 0.484375 " clip-rule="nonzero"/></clipPath><linearGradient x1="0.00000212827" gradientTransform="matrix(0.879024, 0, 0, 0.879024, 0.0865703, 0.484916)" y1="255.999998" x2="255.99999" gradientUnits="userSpaceOnUse" y2="0.0000102113" id="e388a471b9"><stop stop-opacity="1" stop-color="rgb(41.569519%, 54.119873%, 100%)" offset="0"/><stop stop-opacity="1" stop-color="rgb(41.679382%, 54.292297%, 100%)" offset="0.0078125"/><stop stop-opacity="1" stop-color="rgb(41.899109%, 54.637146%, 100%)" offset="0.015625"/><stop stop-opacity="1" stop-color="rgb(42.120361%, 54.983521%, 100%)" offset="0.0234375"/><stop stop-opacity="1" stop-color="rgb(42.340088%, 55.329895%, 100%)" offset="0.03125"/><stop stop-opacity="1" stop-color="rgb(42.56134%, 55.67627%, 100%)" offset="0.0390625"/><stop stop-opacity="1" stop-color="rgb(42.782593%, 56.022644%, 100%)" offset="0.046875"/><stop stop-opacity="1" stop-color="rgb(43.002319%, 56.369019%, 100%)" offset="0.0546875"/><stop stop-opacity="1" stop-color="rgb(43.223572%, 56.715393%, 100%)" offset="0.0625"/><stop stop-opacity="1" stop-color="rgb(43.443298%, 57.061768%, 100%)" offset="0.0703125"/><stop stop-opacity="1" stop-color="rgb(43.664551%, 57.406616%, 100%)" offset="0.078125"/><stop stop-opacity="1" stop-color="rgb(43.884277%, 57.752991%, 100%)" offset="0.0859375"/><stop stop-opacity="1" stop-color="rgb(44.10553%, 58.099365%, 100%)" offset="0.09375"/><stop stop-opacity="1" stop-color="rgb(44.325256%, 58.44574%, 100%)" offset="0.101562"/><stop stop-opacity="1" stop-color="rgb(44.546509%, 58.792114%, 100%)" offset="0.109375"/><stop stop-opacity="1" stop-color="rgb(44.766235%, 59.138489%, 100%)" offset="0.117187"/><stop stop-opacity="1" stop-color="rgb(44.987488%, 59.484863%, 100%)" offset="0.125"/><stop stop-opacity="1" stop-color="rgb(45.207214%, 59.829712%, 100%)" offset="0.132812"/><stop stop-opacity="1" stop-color="rgb(45.428467%, 60.176086%, 100%)" offset="0.140625"/><stop stop-opacity="1" stop-color="rgb(45.648193%, 60.522461%, 100%)" offset="0.148437"/><stop stop-opacity="1" stop-color="rgb(45.869446%, 60.868835%, 100%)" offset="0.15625"/><stop stop-opacity="1" stop-color="rgb(46.090698%, 61.21521%, 100%)" offset="0.164062"/><stop stop-opacity="1" stop-color="rgb(46.310425%, 61.561584%, 100%)" offset="0.171875"/><stop stop-opacity="1" stop-color="rgb(46.531677%, 61.907959%, 100%)" offset="0.179687"/><stop stop-opacity="1" stop-color="rgb(46.751404%, 62.254333%, 100%)" offset="0.1875"/><stop stop-opacity="1" stop-color="rgb(46.972656%, 62.599182%, 100%)" offset="0.195312"/><stop stop-opacity="1" stop-color="rgb(47.192383%, 62.945557%, 100%)" offset="0.203125"/><stop stop-opacity="1" stop-color="rgb(47.413635%, 63.291931%, 100%)" offset="0.210937"/><stop stop-opacity="1" stop-color="rgb(47.633362%, 63.638306%, 100%)" offset="0.21875"/><stop stop-opacity="1" stop-color="rgb(47.854614%, 63.98468%, 100%)" offset="0.226562"/><stop stop-opacity="1" stop-color="rgb(48.074341%, 64.331055%, 100%)" offset="0.234375"/><stop stop-opacity="1" stop-color="rgb(48.295593%, 64.677429%, 100%)" offset="0.242188"/><stop stop-opacity="1" stop-color="rgb(48.51532%, 65.022278%, 100%)" offset="0.25"/><stop stop-opacity="1" stop-color="rgb(48.736572%, 65.368652%, 100%)" offset="0.257812"/><stop stop-opacity="1" stop-color="rgb(48.957825%, 65.715027%, 100%)" offset="0.265625"/><stop stop-opacity="1" stop-color="rgb(49.177551%, 66.061401%, 100%)" offset="0.273438"/><stop stop-opacity="1" stop-color="rgb(49.398804%, 66.407776%, 100%)" offset="0.28125"/><stop stop-opacity="1" stop-color="rgb(49.61853%, 66.75415%, 100%)" offset="0.289062"/><stop stop-opacity="1" stop-color="rgb(49.839783%, 67.100525%, 100%)" offset="0.296875"/><stop stop-opacity="1" stop-color="rgb(50.059509%, 67.446899%, 100%)" offset="0.304688"/><stop stop-opacity="1" stop-color="rgb(50.280762%, 67.791748%, 100%)" offset="0.3125"/><stop stop-opacity="1" stop-color="rgb(50.500488%, 68.138123%, 100%)" offset="0.320312"/><stop stop-opacity="1" stop-color="rgb(50.721741%, 68.484497%, 100%)" offset="0.328125"/><stop stop-opacity="1" stop-color="rgb(50.941467%, 68.830872%, 100%)" offset="0.335938"/><stop stop-opacity="1" stop-color="rgb(51.16272%, 69.177246%, 100%)" offset="0.34375"/><stop stop-opacity="1" stop-color="rgb(51.382446%, 69.523621%, 100%)" offset="0.351562"/><stop stop-opacity="1" stop-color="rgb(51.603699%, 69.869995%, 100%)" offset="0.359375"/><stop stop-opacity="1" stop-color="rgb(51.824951%, 70.214844%, 100%)" offset="0.367188"/><stop stop-opacity="1" stop-color="rgb(52.044678%, 70.561218%, 100%)" offset="0.375"/><stop stop-opacity="1" stop-color="rgb(52.26593%, 70.907593%, 100%)" offset="0.382812"/><stop stop-opacity="1" stop-color="rgb(52.485657%, 71.253967%, 100%)" offset="0.390625"/><stop stop-opacity="1" stop-color="rgb(52.706909%, 71.600342%, 100%)" offset="0.398438"/><stop stop-opacity="1" stop-color="rgb(52.926636%, 71.946716%, 100%)" offset="0.40625"/><stop stop-opacity="1" stop-color="rgb(53.147888%, 72.293091%, 100%)" offset="0.414062"/><stop stop-opacity="1" stop-color="rgb(53.367615%, 72.639465%, 100%)" offset="0.421875"/><stop stop-opacity="1" stop-color="rgb(53.588867%, 72.984314%, 100%)" offset="0.429688"/><stop stop-opacity="1" stop-color="rgb(53.808594%, 73.330688%, 100%)" offset="0.4375"/><stop stop-opacity="1" stop-color="rgb(54.029846%, 73.677063%, 100%)" offset="0.445312"/><stop stop-opacity="1" stop-color="rgb(54.249573%, 74.023438%, 100%)" offset="0.453125"/><stop stop-opacity="1" stop-color="rgb(54.470825%, 74.369812%, 100%)" offset="0.460938"/><stop stop-opacity="1" stop-color="rgb(54.692078%, 74.716187%, 100%)" offset="0.46875"/><stop stop-opacity="1" stop-color="rgb(54.911804%, 75.062561%, 100%)" offset="0.476562"/><stop stop-opacity="1" stop-color="rgb(55.133057%, 75.40741%, 100%)" offset="0.484375"/><stop stop-opacity="1" stop-color="rgb(55.352783%, 75.753784%, 100%)" offset="0.492188"/><stop stop-opacity="1" stop-color="rgb(55.574036%, 76.100159%, 100%)" offset="0.5"/><stop stop-opacity="1" stop-color="rgb(55.683899%, 76.274109%, 100%)" offset="0.5"/><stop stop-opacity="1" stop-color="rgb(55.793762%, 76.446533%, 100%)" offset="0.5"/><stop stop-opacity="1" stop-color="rgb(55.905151%, 76.620483%, 100%)" offset="0.507812"/><stop stop-opacity="1" stop-color="rgb(56.015015%, 76.792908%, 100%)" offset="0.515625"/><stop stop-opacity="1" stop-color="rgb(56.234741%, 77.139282%, 100%)" offset="0.523438"/><stop stop-opacity="1" stop-color="rgb(56.455994%, 77.485657%, 100%)" offset="0.53125"/><stop stop-opacity="1" stop-color="rgb(56.67572%, 77.832031%, 100%)" offset="0.539063"/><stop stop-opacity="1" stop-color="rgb(56.896973%, 78.17688%, 100%)" offset="0.546875"/><stop stop-opacity="1" stop-color="rgb(57.116699%, 78.523254%, 100%)" offset="0.554688"/><stop stop-opacity="1" stop-color="rgb(57.337952%, 78.869629%, 100%)" offset="0.5625"/><stop stop-opacity="1" stop-color="rgb(57.559204%, 79.216003%, 100%)" offset="0.570313"/><stop stop-opacity="1" stop-color="rgb(57.778931%, 79.562378%, 100%)" offset="0.578125"/><stop stop-opacity="1" stop-color="rgb(58.000183%, 79.908752%, 100%)" offset="0.585938"/><stop stop-opacity="1" stop-color="rgb(58.21991%, 80.255127%, 100%)" offset="0.59375"/><stop stop-opacity="1" stop-color="rgb(58.441162%, 80.599976%, 100%)" offset="0.601563"/><stop stop-opacity="1" stop-color="rgb(58.660889%, 80.94635%, 100%)" offset="0.609375"/><stop stop-opacity="1" stop-color="rgb(58.882141%, 81.292725%, 100%)" offset="0.617188"/><stop stop-opacity="1" stop-color="rgb(59.101868%, 81.639099%, 100%)" offset="0.625"/><stop stop-opacity="1" stop-color="rgb(59.32312%, 81.985474%, 100%)" offset="0.632813"/><stop stop-opacity="1" stop-color="rgb(59.542847%, 82.331848%, 100%)" offset="0.640625"/><stop stop-opacity="1" stop-color="rgb(59.764099%, 82.678223%, 100%)" offset="0.648438"/><stop stop-opacity="1" stop-color="rgb(59.983826%, 83.024597%, 100%)" offset="0.65625"/><stop stop-opacity="1" stop-color="rgb(60.205078%, 83.369446%, 100%)" offset="0.664063"/><stop stop-opacity="1" stop-color="rgb(60.426331%, 83.71582%, 100%)" offset="0.671875"/><stop stop-opacity="1" stop-color="rgb(60.646057%, 84.062195%, 100%)" offset="0.679688"/><stop stop-opacity="1" stop-color="rgb(60.86731%, 84.408569%, 100%)" offset="0.6875"/><stop stop-opacity="1" stop-color="rgb(61.087036%, 84.754944%, 100%)" offset="0.695313"/><stop stop-opacity="1" stop-color="rgb(61.308289%, 85.101318%, 100%)" offset="0.703125"/><stop stop-opacity="1" stop-color="rgb(61.528015%, 85.447693%, 100%)" offset="0.710938"/><stop stop-opacity="1" stop-color="rgb(61.749268%, 85.792542%, 100%)" offset="0.71875"/><stop stop-opacity="1" stop-color="rgb(61.968994%, 86.138916%, 100%)" offset="0.726563"/><stop stop-opacity="1" stop-color="rgb(62.190247%, 86.485291%, 100%)" offset="0.734375"/><stop stop-opacity="1" stop-color="rgb(62.409973%, 86.831665%, 100%)" offset="0.742188"/><stop stop-opacity="1" stop-color="rgb(62.631226%, 87.17804%, 100%)" offset="0.75"/><stop stop-opacity="1" stop-color="rgb(62.850952%, 87.524414%, 100%)" offset="0.757812"/><stop stop-opacity="1" stop-color="rgb(63.072205%, 87.870789%, 100%)" offset="0.765625"/><stop stop-opacity="1" stop-color="rgb(63.291931%, 88.217163%, 100%)" offset="0.773438"/><stop stop-opacity="1" stop-color="rgb(63.513184%, 88.562012%, 100%)" offset="0.78125"/><stop stop-opacity="1" stop-color="rgb(63.734436%, 88.908386%, 100%)" offset="0.789062"/><stop stop-opacity="1" stop-color="rgb(63.954163%, 89.254761%, 100%)" offset="0.796875"/><stop stop-opacity="1" stop-color="rgb(64.175415%, 89.601135%, 100%)" offset="0.804688"/><stop stop-opacity="1" stop-color="rgb(64.395142%, 89.94751%, 100%)" offset="0.8125"/><stop stop-opacity="1" stop-color="rgb(64.616394%, 90.293884%, 100%)" offset="0.820312"/><stop stop-opacity="1" stop-color="rgb(64.836121%, 90.640259%, 100%)" offset="0.828125"/><stop stop-opacity="1" stop-color="rgb(65.057373%, 90.986633%, 100%)" offset="0.835938"/><stop stop-opacity="1" stop-color="rgb(65.2771%, 91.331482%, 100%)" offset="0.84375"/><stop stop-opacity="1" stop-color="rgb(65.498352%, 91.677856%, 100%)" offset="0.851562"/><stop stop-opacity="1" stop-color="rgb(65.718079%, 92.024231%, 100%)" offset="0.859375"/><stop stop-opacity="1" stop-color="rgb(65.939331%, 92.370605%, 100%)" offset="0.867188"/><stop stop-opacity="1" stop-color="rgb(66.159058%, 92.71698%, 100%)" offset="0.875"/><stop stop-opacity="1" stop-color="rgb(66.38031%, 93.063354%, 100%)" offset="0.882812"/><stop stop-opacity="1" stop-color="rgb(66.601562%, 93.409729%, 100%)" offset="0.890625"/><stop stop-opacity="1" stop-color="rgb(66.821289%, 93.754578%, 100%)" offset="0.898438"/><stop stop-opacity="1" stop-color="rgb(67.042542%, 94.100952%, 100%)" offset="0.90625"/><stop stop-opacity="1" stop-color="rgb(67.262268%, 94.447327%, 100%)" offset="0.914062"/><stop stop-opacity="1" stop-color="rgb(67.483521%, 94.793701%, 100%)" offset="0.921875"/><stop stop-opacity="1" stop-color="rgb(67.703247%, 95.140076%, 100%)" offset="0.929688"/><stop stop-opacity="1" stop-color="rgb(67.9245%, 95.48645%, 100%)" offset="0.9375"/><stop stop-opacity="1" stop-color="rgb(68.144226%, 95.832825%, 100%)" offset="0.945312"/><stop stop-opacity="1" stop-color="rgb(68.365479%, 96.179199%, 100%)" offset="0.953125"/><stop stop-opacity="1" stop-color="rgb(68.585205%, 96.524048%, 100%)" offset="0.960938"/><stop stop-opacity="1" stop-color="rgb(68.806458%, 96.870422%, 100%)" offset="0.96875"/><stop stop-opacity="1" stop-color="rgb(69.026184%, 97.216797%, 100%)" offset="0.976562"/><stop stop-opacity="1" stop-color="rgb(69.247437%, 97.563171%, 100%)" offset="0.984375"/><stop stop-opacity="1" stop-color="rgb(69.468689%, 97.909546%, 100%)" offset="0.992188"/><stop stop-opacity="1" stop-color="rgb(69.688416%, 98.25592%, 100%)" offset="1"/></linearGradient><clipPath id="13bc7550fd"><rect x="0" width="226" y="0" height="226"/></clipPath><clipPath id="80ec787608"><path d="M 40.820312 40.21875 L 186.382812 40.21875 L 186.382812 185.78125 L 40.820312 185.78125 Z M 40.820312 40.21875 " clip-rule="nonzero"/></clipPath><clipPath id="42ca0ba430"><path d="M 56.074219 40.21875 L 171.128906 40.21875 C 179.554688 40.21875 186.382812 47.046875 186.382812 55.472656 L 186.382812 170.527344 C 186.382812 178.953125 179.554688 185.78125 171.128906 185.78125 L 56.074219 185.78125 C 47.648438 185.78125 40.820312 178.953125 40.820312 170.527344 L 40.820312 55.472656 C 40.820312 47.046875 47.648438 40.21875 56.074219 40.21875 Z M 56.074219 40.21875 " clip-rule="nonzero"/></clipPath><clipPath id="437956f676"><path d="M 0.820312 0.21875 L 146.382812 0.21875 L 146.382812 145.78125 L 0.820312 145.78125 Z M 0.820312 0.21875 " clip-rule="nonzero"/></clipPath><clipPath id="5c8e5f4b1c"><path d="M 16.074219 0.21875 L 131.128906 0.21875 C 139.554688 0.21875 146.382812 7.046875 146.382812 15.472656 L 146.382812 130.527344 C 146.382812 138.953125 139.554688 145.78125 131.128906 145.78125 L 16.074219 145.78125 C 7.648438 145.78125 0.820312 138.953125 0.820312 130.527344 L 0.820312 15.472656 C 0.820312 7.046875 7.648438 0.21875 16.074219 0.21875 Z M 16.074219 0.21875 " clip-rule="nonzero"/></clipPath><clipPath id="82dc252dd9"><rect x="0" width="147" y="0" height="146"/></clipPath><clipPath id="830c9f8bf3"><path d="M 61.710938 61.105469 L 165.496094 61.105469 L 165.496094 164.894531 L 61.710938 164.894531 Z M 61.710938 61.105469 " clip-rule="nonzero"/></clipPath><clipPath id="0badd979a7"><path d="M 125.433594 61.105469 L 101.769531 61.105469 C 97.554688 61.105469 94.140625 64.523438 94.140625 68.734375 L 94.140625 85.914062 C 94.140625 90.125 90.726562 93.539062 86.515625 93.539062 L 69.335938 93.539062 C 65.125 93.539062 61.710938 96.953125 61.710938 101.167969 L 61.710938 124.832031 C 61.710938 129.046875 65.125 132.460938 69.335938 132.460938 L 86.515625 132.460938 C 90.726562 132.460938 94.140625 135.875 94.140625 140.085938 L 94.140625 157.265625 C 94.140625 161.476562 97.554688 164.894531 101.769531 164.894531 L 125.433594 164.894531 C 129.648438 164.894531 133.0625 161.476562 133.0625 157.265625 L 133.0625 140.085938 C 133.0625 135.875 136.476562 132.460938 140.6875 132.460938 L 157.867188 132.460938 C 162.078125 132.460938 165.496094 129.046875 165.496094 124.832031 L 165.496094 101.167969 C 165.496094 96.953125 162.078125 93.539062 157.867188 93.539062 L 140.6875 93.539062 C 136.476562 93.539062 133.0625 90.125 133.0625 85.914062 L 133.0625 68.734375 C 133.0625 64.523438 129.648438 61.105469 125.433594 61.105469 Z M 125.433594 61.105469 " clip-rule="nonzero"/></clipPath><clipPath id="d053c66a00"><path d="M 0.710938 0.105469 L 104.496094 0.105469 L 104.496094 103.894531 L 0.710938 103.894531 Z M 0.710938 0.105469 " clip-rule="nonzero"/></clipPath><clipPath id="e9fe4e8331"><path d="M 64.433594 0.105469 L 40.769531 0.105469 C 36.554688 0.105469 33.140625 3.523438 33.140625 7.734375 L 33.140625 24.914062 C 33.140625 29.125 29.726562 32.539062 25.515625 32.539062 L 8.335938 32.539062 C 4.125 32.539062 0.710938 35.953125 0.710938 40.167969 L 0.710938 63.832031 C 0.710938 68.046875 4.125 71.460938 8.335938 71.460938 L 25.515625 71.460938 C 29.726562 71.460938 33.140625 74.875 33.140625 79.085938 L 33.140625 96.265625 C 33.140625 100.476562 36.554688 103.894531 40.769531 103.894531 L 64.433594 103.894531 C 68.648438 103.894531 72.0625 100.476562 72.0625 96.265625 L 72.0625 79.085938 C 72.0625 74.875 75.476562 71.460938 79.6875 71.460938 L 96.867188 71.460938 C 101.078125 71.460938 104.496094 68.046875 104.496094 63.832031 L 104.496094 40.167969 C 104.496094 35.953125 101.078125 32.539062 96.867188 32.539062 L 79.6875 32.539062 C 75.476562 32.539062 72.0625 29.125 72.0625 24.914062 L 72.0625 7.734375 C 72.0625 3.523438 68.648438 0.105469 64.433594 0.105469 Z M 64.433594 0.105469 " clip-rule="nonzero"/></clipPath><linearGradient x1="0.0000145186" gradientTransform="matrix(0.405411, 0, 0, 0.405411, 0.70906, 0.107412)" y1="255.999985" x2="255.999996" gradientUnits="userSpaceOnUse" y2="0.00000355195" id="6e258bc0d5"><stop stop-opacity="1" stop-color="rgb(41.569519%, 54.119873%, 100%)" offset="0"/><stop stop-opacity="1" stop-color="rgb(41.679382%, 54.292297%, 100%)" offset="0.0078125"/><stop stop-opacity="1" stop-color="rgb(41.899109%, 54.637146%, 100%)" offset="0.015625"/><stop stop-opacity="1" stop-color="rgb(42.120361%, 54.983521%, 100%)" offset="0.0234375"/><stop stop-opacity="1" stop-color="rgb(42.340088%, 55.329895%, 100%)" offset="0.03125"/><stop stop-opacity="1" stop-color="rgb(42.56134%, 55.67627%, 100%)" offset="0.0390625"/><stop stop-opacity="1" stop-color="rgb(42.782593%, 56.022644%, 100%)" offset="0.046875"/><stop stop-opacity="1" stop-color="rgb(43.002319%, 56.369019%, 100%)" offset="0.0546875"/><stop stop-opacity="1" stop-color="rgb(43.223572%, 56.715393%, 100%)" offset="0.0625"/><stop stop-opacity="1" stop-color="rgb(43.443298%, 57.061768%, 100%)" offset="0.0703125"/><stop stop-opacity="1" stop-color="rgb(43.664551%, 57.406616%, 100%)" offset="0.078125"/><stop stop-opacity="1" stop-color="rgb(43.884277%, 57.752991%, 100%)" offset="0.0859375"/><stop stop-opacity="1" stop-color="rgb(44.10553%, 58.099365%, 100%)" offset="0.09375"/><stop stop-opacity="1" stop-color="rgb(44.325256%, 58.44574%, 100%)" offset="0.101562"/><stop stop-opacity="1" stop-color="rgb(44.546509%, 58.792114%, 100%)" offset="0.109375"/><stop stop-opacity="1" stop-color="rgb(44.766235%, 59.138489%, 100%)" offset="0.117188"/><stop stop-opacity="1" stop-color="rgb(44.987488%, 59.484863%, 100%)" offset="0.125"/><stop stop-opacity="1" stop-color="rgb(45.207214%, 59.829712%, 100%)" offset="0.132812"/><stop stop-opacity="1" stop-color="rgb(45.428467%, 60.176086%, 100%)" offset="0.140625"/><stop stop-opacity="1" stop-color="rgb(45.648193%, 60.522461%, 100%)" offset="0.148438"/><stop stop-opacity="1" stop-color="rgb(45.869446%, 60.868835%, 100%)" offset="0.15625"/><stop stop-opacity="1" stop-color="rgb(46.090698%, 61.21521%, 100%)" offset="0.164063"/><stop stop-opacity="1" stop-color="rgb(46.310425%, 61.561584%, 100%)" offset="0.171875"/><stop stop-opacity="1" stop-color="rgb(46.531677%, 61.907959%, 100%)" offset="0.179688"/><stop stop-opacity="1" stop-color="rgb(46.751404%, 62.254333%, 100%)" offset="0.1875"/><stop stop-opacity="1" stop-color="rgb(46.972656%, 62.599182%, 100%)" offset="0.195313"/><stop stop-opacity="1" stop-color="rgb(47.192383%, 62.945557%, 100%)" offset="0.203125"/><stop stop-opacity="1" stop-color="rgb(47.413635%, 63.291931%, 100%)" offset="0.210938"/><stop stop-opacity="1" stop-color="rgb(47.633362%, 63.638306%, 100%)" offset="0.21875"/><stop stop-opacity="1" stop-color="rgb(47.854614%, 63.98468%, 100%)" offset="0.226563"/><stop stop-opacity="1" stop-color="rgb(48.074341%, 64.331055%, 100%)" offset="0.234375"/><stop stop-opacity="1" stop-color="rgb(48.295593%, 64.677429%, 100%)" offset="0.242188"/><stop stop-opacity="1" stop-color="rgb(48.51532%, 65.022278%, 100%)" offset="0.25"/><stop stop-opacity="1" stop-color="rgb(48.736572%, 65.368652%, 100%)" offset="0.257812"/><stop stop-opacity="1" stop-color="rgb(48.957825%, 65.715027%, 100%)" offset="0.265625"/><stop stop-opacity="1" stop-color="rgb(49.177551%, 66.061401%, 100%)" offset="0.273438"/><stop stop-opacity="1" stop-color="rgb(49.398804%, 66.407776%, 100%)" offset="0.28125"/><stop stop-opacity="1" stop-color="rgb(49.61853%, 66.75415%, 100%)" offset="0.289062"/><stop stop-opacity="1" stop-color="rgb(49.839783%, 67.100525%, 100%)" offset="0.296875"/><stop stop-opacity="1" stop-color="rgb(50.059509%, 67.446899%, 100%)" offset="0.304688"/><stop stop-opacity="1" stop-color="rgb(50.280762%, 67.791748%, 100%)" offset="0.3125"/><stop stop-opacity="1" stop-color="rgb(50.500488%, 68.138123%, 100%)" offset="0.320313"/><stop stop-opacity="1" stop-color="rgb(50.721741%, 68.484497%, 100%)" offset="0.328125"/><stop stop-opacity="1" stop-color="rgb(50.941467%, 68.830872%, 100%)" offset="0.335938"/><stop stop-opacity="1" stop-color="rgb(51.16272%, 69.177246%, 100%)" offset="0.34375"/><stop stop-opacity="1" stop-color="rgb(51.382446%, 69.523621%, 100%)" offset="0.351563"/><stop stop-opacity="1" stop-color="rgb(51.603699%, 69.869995%, 100%)" offset="0.359375"/><stop stop-opacity="1" stop-color="rgb(51.824951%, 70.214844%, 100%)" offset="0.367188"/><stop stop-opacity="1" stop-color="rgb(52.044678%, 70.561218%, 100%)" offset="0.375"/><stop stop-opacity="1" stop-color="rgb(52.26593%, 70.907593%, 100%)" offset="0.382813"/><stop stop-opacity="1" stop-color="rgb(52.485657%, 71.253967%, 100%)" offset="0.390625"/><stop stop-opacity="1" stop-color="rgb(52.706909%, 71.600342%, 100%)" offset="0.398438"/><stop stop-opacity="1" stop-color="rgb(52.926636%, 71.946716%, 100%)" offset="0.40625"/><stop stop-opacity="1" stop-color="rgb(53.147888%, 72.293091%, 100%)" offset="0.414063"/><stop stop-opacity="1" stop-color="rgb(53.367615%, 72.639465%, 100%)" offset="0.421875"/><stop stop-opacity="1" stop-color="rgb(53.588867%, 72.984314%, 100%)" offset="0.429688"/><stop stop-opacity="1" stop-color="rgb(53.808594%, 73.330688%, 100%)" offset="0.4375"/><stop stop-opacity="1" stop-color="rgb(54.029846%, 73.677063%, 100%)" offset="0.445312"/><stop stop-opacity="1" stop-color="rgb(54.249573%, 74.023438%, 100%)" offset="0.453125"/><stop stop-opacity="1" stop-color="rgb(54.470825%, 74.369812%, 100%)" offset="0.460938"/><stop stop-opacity="1" stop-color="rgb(54.692078%, 74.716187%, 100%)" offset="0.46875"/><stop stop-opacity="1" stop-color="rgb(54.911804%, 75.062561%, 100%)" offset="0.476562"/><stop stop-opacity="1" stop-color="rgb(55.133057%, 75.40741%, 100%)" offset="0.484375"/><stop stop-opacity="1" stop-color="rgb(55.352783%, 75.753784%, 100%)" offset="0.492188"/><stop stop-opacity="1" stop-color="rgb(55.574036%, 76.100159%, 100%)" offset="0.5"/><stop stop-opacity="1" stop-color="rgb(55.683899%, 76.274109%, 100%)" offset="0.5"/><stop stop-opacity="1" stop-color="rgb(55.793762%, 76.446533%, 100%)" offset="0.5"/><stop stop-opacity="1" stop-color="rgb(55.905151%, 76.620483%, 100%)" offset="0.507813"/><stop stop-opacity="1" stop-color="rgb(56.015015%, 76.792908%, 100%)" offset="0.515625"/><stop stop-opacity="1" stop-color="rgb(56.234741%, 77.139282%, 100%)" offset="0.523438"/><stop stop-opacity="1" stop-color="rgb(56.455994%, 77.485657%, 100%)" offset="0.53125"/><stop stop-opacity="1" stop-color="rgb(56.67572%, 77.832031%, 100%)" offset="0.539062"/><stop stop-opacity="1" stop-color="rgb(56.896973%, 78.17688%, 100%)" offset="0.546875"/><stop stop-opacity="1" stop-color="rgb(57.116699%, 78.523254%, 100%)" offset="0.554688"/><stop stop-opacity="1" stop-color="rgb(57.337952%, 78.869629%, 100%)" offset="0.5625"/><stop stop-opacity="1" stop-color="rgb(57.559204%, 79.216003%, 100%)" offset="0.570312"/><stop stop-opacity="1" stop-color="rgb(57.778931%, 79.562378%, 100%)" offset="0.578125"/><stop stop-opacity="1" stop-color="rgb(58.000183%, 79.908752%, 100%)" offset="0.585938"/><stop stop-opacity="1" stop-color="rgb(58.21991%, 80.255127%, 100%)" offset="0.59375"/><stop stop-opacity="1" stop-color="rgb(58.441162%, 80.599976%, 100%)" offset="0.601562"/><stop stop-opacity="1" stop-color="rgb(58.660889%, 80.94635%, 100%)" offset="0.609375"/><stop stop-opacity="1" stop-color="rgb(58.882141%, 81.292725%, 100%)" offset="0.617187"/><stop stop-opacity="1" stop-color="rgb(59.101868%, 81.639099%, 100%)" offset="0.625"/><stop stop-opacity="1" stop-color="rgb(59.32312%, 81.985474%, 100%)" offset="0.632812"/><stop stop-opacity="1" stop-color="rgb(59.542847%, 82.331848%, 100%)" offset="0.640625"/><stop stop-opacity="1" stop-color="rgb(59.764099%, 82.678223%, 100%)" offset="0.648438"/><stop stop-opacity="1" stop-color="rgb(59.983826%, 83.024597%, 100%)" offset="0.65625"/><stop stop-opacity="1" stop-color="rgb(60.205078%, 83.369446%, 100%)" offset="0.664062"/><stop stop-opacity="1" stop-color="rgb(60.426331%, 83.71582%, 100%)" offset="0.671875"/><stop stop-opacity="1" stop-color="rgb(60.646057%, 84.062195%, 100%)" offset="0.679688"/><stop stop-opacity="1" stop-color="rgb(60.86731%, 84.408569%, 100%)" offset="0.6875"/><stop stop-opacity="1" stop-color="rgb(61.087036%, 84.754944%, 100%)" offset="0.695312"/><stop stop-opacity="1" stop-color="rgb(61.308289%, 85.101318%, 100%)" offset="0.703125"/><stop stop-opacity="1" stop-color="rgb(61.528015%, 85.447693%, 100%)" offset="0.710937"/><stop stop-opacity="1" stop-color="rgb(61.749268%, 85.792542%, 100%)" offset="0.71875"/><stop stop-opacity="1" stop-color="rgb(61.968994%, 86.138916%, 100%)" offset="0.726562"/><stop stop-opacity="1" stop-color="rgb(62.190247%, 86.485291%, 100%)" offset="0.734375"/><stop stop-opacity="1" stop-color="rgb(62.409973%, 86.831665%, 100%)" offset="0.742187"/><stop stop-opacity="1" stop-color="rgb(62.631226%, 87.17804%, 100%)" offset="0.75"/><stop stop-opacity="1" stop-color="rgb(62.850952%, 87.524414%, 100%)" offset="0.757812"/><stop stop-opacity="1" stop-color="rgb(63.072205%, 87.870789%, 100%)" offset="0.765625"/><stop stop-opacity="1" stop-color="rgb(63.293457%, 88.217163%, 100%)" offset="0.773437"/><stop stop-opacity="1" stop-color="rgb(63.513184%, 88.562012%, 100%)" offset="0.78125"/><stop stop-opacity="1" stop-color="rgb(63.734436%, 88.908386%, 100%)" offset="0.789062"/><stop stop-opacity="1" stop-color="rgb(63.954163%, 89.254761%, 100%)" offset="0.796875"/><stop stop-opacity="1" stop-color="rgb(64.175415%, 89.601135%, 100%)" offset="0.804688"/><stop stop-opacity="1" stop-color="rgb(64.395142%, 89.94751%, 100%)" offset="0.8125"/><stop stop-opacity="1" stop-color="rgb(64.616394%, 90.293884%, 100%)" offset="0.820312"/><stop stop-opacity="1" stop-color="rgb(64.836121%, 90.640259%, 100%)" offset="0.828125"/><stop stop-opacity="1" stop-color="rgb(65.057373%, 90.986633%, 100%)" offset="0.835937"/><stop stop-opacity="1" stop-color="rgb(65.2771%, 91.331482%, 100%)" offset="0.84375"/><stop stop-opacity="1" stop-color="rgb(65.498352%, 91.677856%, 100%)" offset="0.851562"/><stop stop-opacity="1" stop-color="rgb(65.718079%, 92.024231%, 100%)" offset="0.859375"/><stop stop-opacity="1" stop-color="rgb(65.939331%, 92.370605%, 100%)" offset="0.867187"/><stop stop-opacity="1" stop-color="rgb(66.159058%, 92.71698%, 100%)" offset="0.875"/><stop stop-opacity="1" stop-color="rgb(66.38031%, 93.063354%, 100%)" offset="0.882812"/><stop stop-opacity="1" stop-color="rgb(66.601562%, 93.409729%, 100%)" offset="0.890625"/><stop stop-opacity="1" stop-color="rgb(66.821289%, 93.754578%, 100%)" offset="0.898437"/><stop stop-opacity="1" stop-color="rgb(67.042542%, 94.100952%, 100%)" offset="0.90625"/><stop stop-opacity="1" stop-color="rgb(67.262268%, 94.447327%, 100%)" offset="0.914062"/><stop stop-opacity="1" stop-color="rgb(67.483521%, 94.793701%, 100%)" offset="0.921875"/><stop stop-opacity="1" stop-color="rgb(67.703247%, 95.140076%, 100%)" offset="0.929688"/><stop stop-opacity="1" stop-color="rgb(67.9245%, 95.48645%, 100%)" offset="0.9375"/><stop stop-opacity="1" stop-color="rgb(68.144226%, 95.832825%, 100%)" offset="0.945313"/><stop stop-opacity="1" stop-color="rgb(68.365479%, 96.179199%, 100%)" offset="0.953125"/><stop stop-opacity="1" stop-color="rgb(68.585205%, 96.524048%, 100%)" offset="0.960938"/><stop stop-opacity="1" stop-color="rgb(68.806458%, 96.870422%, 100%)" offset="0.96875"/><stop stop-opacity="1" stop-color="rgb(69.026184%, 97.216797%, 100%)" offset="0.976562"/><stop stop-opacity="1" stop-color="rgb(69.247437%, 97.563171%, 100%)" offset="0.984375"/><stop stop-opacity="1" stop-color="rgb(69.468689%, 97.909546%, 100%)" offset="0.992188"/><stop stop-opacity="1" stop-color="rgb(69.688416%, 98.25592%, 100%)" offset="1"/></linearGradient><clipPath id="0da23abf5f"><rect x="0" width="105" y="0" height="104"/></clipPath><clipPath id="b07ffb6865"><path d="M 254 0.199219 L 1447.359375 0.199219 L 1447.359375 226.761719 L 254 226.761719 Z M 254 0.199219 " clip-rule="nonzero"/></clipPath><clipPath id="a92c24b97f"><rect x="0" width="1194" y="0" height="227"/></clipPath><clipPath id="ae37902098"><rect x="0" width="1448" y="0" height="227"/></clipPath></defs><rect x="-153.6" width="1843.2" fill="#ffffff" y="-86.399999" height="1036.79999" fill-opacity="1"/><rect x="-153.6" width="1843.2" fill="#ffffff" y="-86.399999" height="1036.79999" fill-opacity="1"/><g transform="matrix(1, 0, 0, 1, 44, 319)"><g clip-path="url(#ae37902098)"><g clip-path="url(#ea9d234ac2)"><g clip-path="url(#46b9906263)"><g transform="matrix(1, 0, 0, 1, 1, 0)"><g clip-path="url(#13bc7550fd)"><g clip-path="url(#1a76d33416)"><g clip-path="url(#0604bbc14b)"><path fill="url(#e388a471b9)" d="M 0.0859375 0.484375 L 0.0859375 225.515625 L 225.117188 225.515625 L 225.117188 0.484375 Z M 0.0859375 0.484375 " fill-rule="nonzero"/></g></g></g></g></g></g><g clip-path="url(#80ec787608)"><g clip-path="url(#42ca0ba430)"><g transform="matrix(1, 0, 0, 1, 40, 40)"><g clip-path="url(#82dc252dd9)"><g clip-path="url(#437956f676)"><g clip-path="url(#5c8e5f4b1c)"><path fill="#ffffff" d="M 0.820312 0.21875 L 146.382812 0.21875 L 146.382812 145.78125 L 0.820312 145.78125 Z M 0.820312 0.21875 " fill-opacity="1" fill-rule="nonzero"/></g></g></g></g></g></g><g clip-path="url(#830c9f8bf3)"><g clip-path="url(#0badd979a7)"><g transform="matrix(1, 0, 0, 1, 61, 61)"><g clip-path="url(#0da23abf5f)"><g clip-path="url(#d053c66a00)"><g clip-path="url(#e9fe4e8331)"><path fill="url(#6e258bc0d5)" d="M 0.710938 0.105469 L 0.710938 103.894531 L 104.496094 103.894531 L 104.496094 0.105469 Z M 0.710938 0.105469 " fill-rule="nonzero"/></g></g></g></g></g></g><g fill="#ffffff" fill-opacity="1"><g transform="translate(110.641189, 120.596132)"><g/></g></g><g clip-path="url(#b07ffb6865)"><g transform="matrix(1, 0, 0, 1, 254, 0)"><g clip-path="url(#a92c24b97f)"><g fill="#737373" fill-opacity="1"><g transform="translate(0.257406, 163.088756)"><g><path d="M 14.640625 0 L 14.640625 -61.265625 L 1.984375 -61.265625 L 1.984375 -72.484375 L 14.640625 -72.484375 L 14.640625 -83.15625 C 14.640625 -89.59375 16.460938 -94.632812 20.109375 -98.28125 C 23.753906 -101.9375 28.800781 -103.765625 35.25 -103.765625 L 53.15625 -103.765625 L 53.15625 -92.53125 L 37.8125 -92.53125 C 34.59375 -92.53125 32.128906 -91.628906 30.421875 -89.828125 C 28.710938 -88.023438 27.859375 -85.515625 27.859375 -82.296875 L 27.859375 -72.484375 L 50.3125 -72.484375 L 50.3125 -61.265625 L 27.859375 -61.265625 L 27.859375 0 Z M 14.640625 0 "/></g></g></g><g fill="#737373" fill-opacity="1"><g transform="translate(48.865829, 163.088756)"><g><path d="M 40.515625 1.703125 C 33.492188 1.703125 27.425781 0.0195312 22.3125 -3.34375 C 17.195312 -6.707031 13.265625 -11.28125 10.515625 -17.0625 C 7.765625 -22.84375 6.390625 -29.238281 6.390625 -36.25 C 6.390625 -43.351562 7.90625 -49.769531 10.9375 -55.5 C 13.976562 -61.238281 18.335938 -65.789062 24.015625 -69.15625 C 29.703125 -72.519531 36.523438 -74.203125 44.484375 -74.203125 C 52.160156 -74.203125 58.742188 -72.539062 64.234375 -69.21875 C 69.734375 -65.90625 73.976562 -61.40625 76.96875 -55.71875 C 79.957031 -50.03125 81.453125 -43.679688 81.453125 -36.671875 L 81.453125 0 L 68.234375 0 L 68.234375 -14.78125 L 67.9375 -14.78125 C 66.519531 -12.03125 64.601562 -9.398438 62.1875 -6.890625 C 59.769531 -4.378906 56.757812 -2.316406 53.15625 -0.703125 C 49.5625 0.898438 45.347656 1.703125 40.515625 1.703125 Z M 43.921875 -9.515625 C 48.660156 -9.515625 52.851562 -10.675781 56.5 -13 C 60.144531 -15.320312 62.984375 -18.546875 65.015625 -22.671875 C 67.054688 -26.796875 68.078125 -31.414062 68.078125 -36.53125 C 68.078125 -41.550781 67.101562 -46.050781 65.15625 -50.03125 C 63.21875 -54.007812 60.445312 -57.160156 56.84375 -59.484375 C 53.25 -61.804688 49.035156 -62.96875 44.203125 -62.96875 C 39.085938 -62.96875 34.703125 -61.78125 31.046875 -59.40625 C 27.398438 -57.039062 24.601562 -53.84375 22.65625 -49.8125 C 20.71875 -45.789062 19.75 -41.222656 19.75 -36.109375 C 19.75 -31.179688 20.695312 -26.703125 22.59375 -22.671875 C 24.488281 -18.640625 27.238281 -15.4375 30.84375 -13.0625 C 34.445312 -10.695312 38.804688 -9.515625 43.921875 -9.515625 Z M 43.921875 -9.515625 "/></g></g></g><g fill="#737373" fill-opacity="1"><g transform="translate(140.682059, 163.088756)"><g><path d="M 9.953125 0 L 9.953125 -51.875 C 9.953125 -58.320312 11.773438 -63.367188 15.421875 -67.015625 C 19.066406 -70.660156 24.113281 -72.484375 30.5625 -72.484375 L 45.484375 -72.484375 L 45.484375 -61.265625 L 32.984375 -61.265625 C 29.847656 -61.265625 27.40625 -60.363281 25.65625 -58.5625 C 23.90625 -56.757812 23.03125 -54.25 23.03125 -51.03125 L 23.03125 0 Z M 9.953125 0 "/></g></g></g><g fill="#737373" fill-opacity="1"><g transform="translate(187.869352, 163.088756)"><g><path d="M 10.375 0 L 10.375 -43.640625 C 10.375 -49.234375 11.648438 -54.347656 14.203125 -58.984375 C 16.765625 -63.628906 20.460938 -67.328125 25.296875 -70.078125 C 30.128906 -72.828125 35.957031 -74.203125 42.78125 -74.203125 C 46.101562 -74.203125 49.421875 -73.75 52.734375 -72.84375 C 56.046875 -71.945312 59.125 -70.429688 61.96875 -68.296875 C 64.8125 -66.160156 67.085938 -63.296875 68.796875 -59.703125 L 68.9375 -59.703125 C 70.832031 -63.296875 73.203125 -66.160156 76.046875 -68.296875 C 78.890625 -70.429688 81.96875 -71.945312 85.28125 -72.84375 C 88.601562 -73.75 91.96875 -74.203125 95.375 -74.203125 C 102.101562 -74.203125 107.882812 -72.828125 112.71875 -70.078125 C 117.550781 -67.328125 121.242188 -63.628906 123.796875 -58.984375 C 126.359375 -54.347656 127.640625 -49.234375 127.640625 -43.640625 L 127.640625 0 L 114.5625 0 L 114.5625 -43.640625 C 114.5625 -47.234375 113.707031 -50.5 112 -53.4375 C 110.300781 -56.375 108.003906 -58.695312 105.109375 -60.40625 C 102.222656 -62.113281 98.929688 -62.96875 95.234375 -62.96875 C 91.628906 -62.96875 88.3125 -62.085938 85.28125 -60.328125 C 82.25 -58.578125 79.859375 -56.253906 78.109375 -53.359375 C 76.359375 -50.472656 75.484375 -47.234375 75.484375 -43.640625 L 75.484375 0 L 62.40625 0 L 62.40625 -43.640625 C 62.40625 -47.234375 61.523438 -50.472656 59.765625 -53.359375 C 58.015625 -56.253906 55.644531 -58.578125 52.65625 -60.328125 C 49.675781 -62.085938 46.335938 -62.96875 42.640625 -62.96875 C 39.035156 -62.96875 35.785156 -62.113281 32.890625 -60.40625 C 30.003906 -58.695312 27.707031 -56.375 26 -53.4375 C 24.300781 -50.5 23.453125 -47.234375 23.453125 -43.640625 L 23.453125 0 Z M 10.375 0 "/></g></g></g><g fill="#737373" fill-opacity="1"><g transform="translate(325.877962, 163.088756)"><g><path d="M 40.515625 1.703125 C 33.492188 1.703125 27.425781 0.0195312 22.3125 -3.34375 C 17.195312 -6.707031 13.265625 -11.28125 10.515625 -17.0625 C 7.765625 -22.84375 6.390625 -29.238281 6.390625 -36.25 C 6.390625 -43.351562 7.90625 -49.769531 10.9375 -55.5 C 13.976562 -61.238281 18.335938 -65.789062 24.015625 -69.15625 C 29.703125 -72.519531 36.523438 -74.203125 44.484375 -74.203125 C 52.160156 -74.203125 58.742188 -72.539062 64.234375 -69.21875 C 69.734375 -65.90625 73.976562 -61.40625 76.96875 -55.71875 C 79.957031 -50.03125 81.453125 -43.679688 81.453125 -36.671875 L 81.453125 0 L 68.234375 0 L 68.234375 -14.78125 L 67.9375 -14.78125 C 66.519531 -12.03125 64.601562 -9.398438 62.1875 -6.890625 C 59.769531 -4.378906 56.757812 -2.316406 53.15625 -0.703125 C 49.5625 0.898438 45.347656 1.703125 40.515625 1.703125 Z M 43.921875 -9.515625 C 48.660156 -9.515625 52.851562 -10.675781 56.5 -13 C 60.144531 -15.320312 62.984375 -18.546875 65.015625 -22.671875 C 67.054688 -26.796875 68.078125 -31.414062 68.078125 -36.53125 C 68.078125 -41.550781 67.101562 -46.050781 65.15625 -50.03125 C 63.21875 -54.007812 60.445312 -57.160156 56.84375 -59.484375 C 53.25 -61.804688 49.035156 -62.96875 44.203125 -62.96875 C 39.085938 -62.96875 34.703125 -61.78125 31.046875 -59.40625 C 27.398438 -57.039062 24.601562 -53.84375 22.65625 -49.8125 C 20.71875 -45.789062 19.75 -41.222656 19.75 -36.109375 C 19.75 -31.179688 20.695312 -26.703125 22.59375 -22.671875 C 24.488281 -18.640625 27.238281 -15.4375 30.84375 -13.0625 C 34.445312 -10.695312 38.804688 -9.515625 43.921875 -9.515625 Z M 43.921875 -9.515625 "/></g></g></g><g fill="#737373" fill-opacity="1"><g transform="translate(417.694169, 163.088756)"><g><path d="M 45.484375 0 C 37.992188 0 31.3125 -1.609375 25.4375 -4.828125 C 19.5625 -8.054688 14.914062 -12.394531 11.5 -17.84375 C 8.09375 -23.289062 6.390625 -29.425781 6.390625 -36.25 C 6.390625 -43.070312 8.09375 -49.207031 11.5 -54.65625 C 14.914062 -60.101562 19.5625 -64.4375 25.4375 -67.65625 C 31.3125 -70.875 37.992188 -72.484375 45.484375 -72.484375 L 54.015625 -72.484375 L 54.015625 -61.265625 L 45.0625 -61.265625 C 40.226562 -61.265625 35.890625 -60.148438 32.046875 -57.921875 C 28.210938 -55.691406 25.179688 -52.679688 22.953125 -48.890625 C 20.722656 -45.097656 19.609375 -40.882812 19.609375 -36.25 C 19.609375 -31.601562 20.722656 -27.382812 22.953125 -23.59375 C 25.179688 -19.800781 28.210938 -16.789062 32.046875 -14.5625 C 35.890625 -12.34375 40.226562 -11.234375 45.0625 -11.234375 L 54.015625 -11.234375 L 54.015625 0 Z M 45.484375 0 "/></g></g></g><g fill="#737373" fill-opacity="1"><g transform="translate(476.251899, 163.088756)"><g><path d="M 10.375 0 L 10.375 -72.484375 L 23.59375 -72.484375 L 23.59375 0 Z M 17.0625 -84 C 14.6875 -84 12.625 -84.875 10.875 -86.625 C 9.125 -88.382812 8.25 -90.445312 8.25 -92.8125 C 8.25 -95.1875 9.125 -97.25 10.875 -99 C 12.625 -100.75 14.6875 -101.625 17.0625 -101.625 C 19.425781 -101.625 21.484375 -100.75 23.234375 -99 C 24.992188 -97.25 25.875 -95.1875 25.875 -92.8125 C 25.875 -90.445312 24.992188 -88.382812 23.234375 -86.625 C 21.484375 -84.875 19.425781 -84 17.0625 -84 Z M 17.0625 -84 "/></g></g></g><g fill="#737373" fill-opacity="1"><g transform="translate(510.078948, 163.088756)"><g><path d="M 40.515625 1.703125 C 33.492188 1.703125 27.425781 0.0195312 22.3125 -3.34375 C 17.195312 -6.707031 13.265625 -11.28125 10.515625 -17.0625 C 7.765625 -22.84375 6.390625 -29.238281 6.390625 -36.25 C 6.390625 -43.351562 7.90625 -49.769531 10.9375 -55.5 C 13.976562 -61.238281 18.335938 -65.789062 24.015625 -69.15625 C 29.703125 -72.519531 36.523438 -74.203125 44.484375 -74.203125 C 52.160156 -74.203125 58.742188 -72.539062 64.234375 -69.21875 C 69.734375 -65.90625 73.976562 -61.40625 76.96875 -55.71875 C 79.957031 -50.03125 81.453125 -43.679688 81.453125 -36.671875 L 81.453125 0 L 68.234375 0 L 68.234375 -14.78125 L 67.9375 -14.78125 C 66.519531 -12.03125 64.601562 -9.398438 62.1875 -6.890625 C 59.769531 -4.378906 56.757812 -2.316406 53.15625 -0.703125 C 49.5625 0.898438 45.347656 1.703125 40.515625 1.703125 Z M 43.921875 -9.515625 C 48.660156 -9.515625 52.851562 -10.675781 56.5 -13 C 60.144531 -15.320312 62.984375 -18.546875 65.015625 -22.671875 C 67.054688 -26.796875 68.078125 -31.414062 68.078125 -36.53125 C 68.078125 -41.550781 67.101562 -46.050781 65.15625 -50.03125 C 63.21875 -54.007812 60.445312 -57.160156 56.84375 -59.484375 C 53.25 -61.804688 49.035156 -62.96875 44.203125 -62.96875 C 39.085938 -62.96875 34.703125 -61.78125 31.046875 -59.40625 C 27.398438 -57.039062 24.601562 -53.84375 22.65625 -49.8125 C 20.71875 -45.789062 19.75 -41.222656 19.75 -36.109375 C 19.75 -31.179688 20.695312 -26.703125 22.59375 -22.671875 C 24.488281 -18.640625 27.238281 -15.4375 30.84375 -13.0625 C 34.445312 -10.695312 38.804688 -9.515625 43.921875 -9.515625 Z M 43.921875 -9.515625 "/></g></g></g><g fill="#38b6ff" fill-opacity="1"><g transform="translate(601.895921, 163.088756)"><g><path d="M 47.046875 1.703125 C 40.035156 1.703125 33.734375 0.1875 28.140625 -2.84375 C 22.546875 -5.875 18.113281 -10.253906 14.84375 -15.984375 C 11.582031 -21.722656 9.953125 -28.617188 9.953125 -36.671875 L 9.953125 -103.765625 L 23.03125 -103.765625 L 23.03125 -59.5625 L 23.3125 -59.5625 C 24.925781 -62.5 27.035156 -65.054688 29.640625 -67.234375 C 32.242188 -69.410156 35.226562 -71.113281 38.59375 -72.34375 C 41.957031 -73.582031 45.488281 -74.203125 49.1875 -74.203125 C 55.90625 -74.203125 61.914062 -72.679688 67.21875 -69.640625 C 72.53125 -66.609375 76.726562 -62.320312 79.8125 -56.78125 C 82.894531 -51.238281 84.4375 -44.675781 84.4375 -37.09375 C 84.4375 -31.125 83.507812 -25.742188 81.65625 -20.953125 C 79.8125 -16.171875 77.226562 -12.070312 73.90625 -8.65625 C 70.59375 -5.25 66.660156 -2.671875 62.109375 -0.921875 C 57.566406 0.828125 52.546875 1.703125 47.046875 1.703125 Z M 47.046875 -9.515625 C 51.503906 -9.515625 55.554688 -10.601562 59.203125 -12.78125 C 62.847656 -14.96875 65.757812 -18.050781 67.9375 -22.03125 C 70.125 -26.007812 71.21875 -30.75 71.21875 -36.25 C 71.21875 -41.550781 70.148438 -46.191406 68.015625 -50.171875 C 65.878906 -54.148438 63.007812 -57.273438 59.40625 -59.546875 C 55.8125 -61.828125 51.738281 -62.96875 47.1875 -62.96875 C 42.738281 -62.96875 38.6875 -61.878906 35.03125 -59.703125 C 31.382812 -57.523438 28.492188 -54.421875 26.359375 -50.390625 C 24.234375 -46.359375 23.171875 -41.597656 23.171875 -36.109375 C 23.171875 -30.703125 24.234375 -26.007812 26.359375 -22.03125 C 28.492188 -18.050781 31.382812 -14.96875 35.03125 -12.78125 C 38.6875 -10.601562 42.691406 -9.515625 47.046875 -9.515625 Z M 47.046875 -9.515625 "/></g></g></g><g fill="#38b6ff" fill-opacity="1"><g transform="translate(692.717248, 163.088756)"><g><path d="M 40.515625 1.703125 C 33.492188 1.703125 27.425781 0.0195312 22.3125 -3.34375 C 17.195312 -6.707031 13.265625 -11.28125 10.515625 -17.0625 C 7.765625 -22.84375 6.390625 -29.238281 6.390625 -36.25 C 6.390625 -43.351562 7.90625 -49.769531 10.9375 -55.5 C 13.976562 -61.238281 18.335938 -65.789062 24.015625 -69.15625 C 29.703125 -72.519531 36.523438 -74.203125 44.484375 -74.203125 C 52.160156 -74.203125 58.742188 -72.539062 64.234375 -69.21875 C 69.734375 -65.90625 73.976562 -61.40625 76.96875 -55.71875 C 79.957031 -50.03125 81.453125 -43.679688 81.453125 -36.671875 L 81.453125 0 L 68.234375 0 L 68.234375 -14.78125 L 67.9375 -14.78125 C 66.519531 -12.03125 64.601562 -9.398438 62.1875 -6.890625 C 59.769531 -4.378906 56.757812 -2.316406 53.15625 -0.703125 C 49.5625 0.898438 45.347656 1.703125 40.515625 1.703125 Z M 43.921875 -9.515625 C 48.660156 -9.515625 52.851562 -10.675781 56.5 -13 C 60.144531 -15.320312 62.984375 -18.546875 65.015625 -22.671875 C 67.054688 -26.796875 68.078125 -31.414062 68.078125 -36.53125 C 68.078125 -41.550781 67.101562 -46.050781 65.15625 -50.03125 C 63.21875 -54.007812 60.445312 -57.160156 56.84375 -59.484375 C 53.25 -61.804688 49.035156 -62.96875 44.203125 -62.96875 C 39.085938 -62.96875 34.703125 -61.78125 31.046875 -59.40625 C 27.398438 -57.039062 24.601562 -53.84375 22.65625 -49.8125 C 20.71875 -45.789062 19.75 -41.222656 19.75 -36.109375 C 19.75 -31.179688 20.695312 -26.703125 22.59375 -22.671875 C 24.488281 -18.640625 27.238281 -15.4375 30.84375 -13.0625 C 34.445312 -10.695312 38.804688 -9.515625 43.921875 -9.515625 Z M 43.921875 -9.515625 "/></g></g></g><g fill="#38b6ff" fill-opacity="1"><g transform="translate(784.533479, 163.088756)"><g><path d="M 9.953125 0 L 9.953125 -51.875 C 9.953125 -58.320312 11.773438 -63.367188 15.421875 -67.015625 C 19.066406 -70.660156 24.113281 -72.484375 30.5625 -72.484375 L 45.484375 -72.484375 L 45.484375 -61.265625 L 32.984375 -61.265625 C 29.847656 -61.265625 27.40625 -60.363281 25.65625 -58.5625 C 23.90625 -56.757812 23.03125 -54.25 23.03125 -51.03125 L 23.03125 0 Z M 9.953125 0 "/></g></g></g><g fill="#38b6ff" fill-opacity="1"><g transform="translate(831.720772, 163.088756)"><g><path d="M 40.515625 1.703125 C 33.492188 1.703125 27.425781 0.0195312 22.3125 -3.34375 C 17.195312 -6.707031 13.265625 -11.28125 10.515625 -17.0625 C 7.765625 -22.84375 6.390625 -29.238281 6.390625 -36.25 C 6.390625 -43.351562 7.90625 -49.769531 10.9375 -55.5 C 13.976562 -61.238281 18.335938 -65.789062 24.015625 -69.15625 C 29.703125 -72.519531 36.523438 -74.203125 44.484375 -74.203125 C 52.160156 -74.203125 58.742188 -72.539062 64.234375 -69.21875 C 69.734375 -65.90625 73.976562 -61.40625 76.96875 -55.71875 C 79.957031 -50.03125 81.453125 -43.679688 81.453125 -36.671875 L 81.453125 0 L 68.234375 0 L 68.234375 -14.78125 L 67.9375 -14.78125 C 66.519531 -12.03125 64.601562 -9.398438 62.1875 -6.890625 C 59.769531 -4.378906 56.757812 -2.316406 53.15625 -0.703125 C 49.5625 0.898438 45.347656 1.703125 40.515625 1.703125 Z M 43.921875 -9.515625 C 48.660156 -9.515625 52.851562 -10.675781 56.5 -13 C 60.144531 -15.320312 62.984375 -18.546875 65.015625 -22.671875 C 67.054688 -26.796875 68.078125 -31.414062 68.078125 -36.53125 C 68.078125 -41.550781 67.101562 -46.050781 65.15625 -50.03125 C 63.21875 -54.007812 60.445312 -57.160156 56.84375 -59.484375 C 53.25 -61.804688 49.035156 -62.96875 44.203125 -62.96875 C 39.085938 -62.96875 34.703125 -61.78125 31.046875 -59.40625 C 27.398438 -57.039062 24.601562 -53.84375 22.65625 -49.8125 C 20.71875 -45.789062 19.75 -41.222656 19.75 -36.109375 C 19.75 -31.179688 20.695312 -26.703125 22.59375 -22.671875 C 24.488281 -18.640625 27.238281 -15.4375 30.84375 -13.0625 C 34.445312 -10.695312 38.804688 -9.515625 43.921875 -9.515625 Z M 43.921875 -9.515625 "/></g></g></g><g fill="#38b6ff" fill-opacity="1"><g transform="translate(923.537003, 163.088756)"><g><path d="M 35.109375 0 C 28.660156 0 23.613281 -1.847656 19.96875 -5.546875 C 16.320312 -9.242188 14.5 -14.265625 14.5 -20.609375 L 14.5 -90.6875 L 27.578125 -90.6875 L 27.578125 -21.46875 C 27.578125 -18.332031 28.453125 -15.84375 30.203125 -14 C 31.953125 -12.15625 34.394531 -11.234375 37.53125 -11.234375 L 52.171875 -11.234375 L 52.171875 0 Z M 1.984375 -61.265625 L 1.984375 -72.484375 L 52.453125 -72.484375 L 52.453125 -61.265625 Z M 1.984375 -61.265625 "/></g></g></g><g fill="#38b6ff" fill-opacity="1"><g transform="translate(979.109943, 163.088756)"><g><path d="M 40.515625 1.703125 C 33.492188 1.703125 27.425781 0.0195312 22.3125 -3.34375 C 17.195312 -6.707031 13.265625 -11.28125 10.515625 -17.0625 C 7.765625 -22.84375 6.390625 -29.238281 6.390625 -36.25 C 6.390625 -43.351562 7.90625 -49.769531 10.9375 -55.5 C 13.976562 -61.238281 18.335938 -65.789062 24.015625 -69.15625 C 29.703125 -72.519531 36.523438 -74.203125 44.484375 -74.203125 C 52.160156 -74.203125 58.742188 -72.539062 64.234375 -69.21875 C 69.734375 -65.90625 73.976562 -61.40625 76.96875 -55.71875 C 79.957031 -50.03125 81.453125 -43.679688 81.453125 -36.671875 L 81.453125 0 L 68.234375 0 L 68.234375 -14.78125 L 67.9375 -14.78125 C 66.519531 -12.03125 64.601562 -9.398438 62.1875 -6.890625 C 59.769531 -4.378906 56.757812 -2.316406 53.15625 -0.703125 C 49.5625 0.898438 45.347656 1.703125 40.515625 1.703125 Z M 43.921875 -9.515625 C 48.660156 -9.515625 52.851562 -10.675781 56.5 -13 C 60.144531 -15.320312 62.984375 -18.546875 65.015625 -22.671875 C 67.054688 -26.796875 68.078125 -31.414062 68.078125 -36.53125 C 68.078125 -41.550781 67.101562 -46.050781 65.15625 -50.03125 C 63.21875 -54.007812 60.445312 -57.160156 56.84375 -59.484375 C 53.25 -61.804688 49.035156 -62.96875 44.203125 -62.96875 C 39.085938 -62.96875 34.703125 -61.78125 31.046875 -59.40625 C 27.398438 -57.039062 24.601562 -53.84375 22.65625 -49.8125 C 20.71875 -45.789062 19.75 -41.222656 19.75 -36.109375 C 19.75 -31.179688 20.695312 -26.703125 22.59375 -22.671875 C 24.488281 -18.640625 27.238281 -15.4375 30.84375 -13.0625 C 34.445312 -10.695312 38.804688 -9.515625 43.921875 -9.515625 Z M 43.921875 -9.515625 "/></g></g></g><g fill="#737373" fill-opacity="1"><g transform="translate(1070.936933, 163.088756)"><g><path d="M 14.78125 1.421875 C 12.21875 1.421875 10.015625 0.5 8.171875 -1.34375 C 6.328125 -3.195312 5.40625 -5.398438 5.40625 -7.953125 C 5.40625 -10.515625 6.328125 -12.71875 8.171875 -14.5625 C 10.015625 -16.414062 12.21875 -17.34375 14.78125 -17.34375 C 17.34375 -17.34375 19.546875 -16.414062 21.390625 -14.5625 C 23.234375 -12.71875 24.15625 -10.515625 24.15625 -7.953125 C 24.15625 -6.253906 23.753906 -4.691406 22.953125 -3.265625 C 22.148438 -1.847656 21.035156 -0.710938 19.609375 0.140625 C 18.191406 0.992188 16.582031 1.421875 14.78125 1.421875 Z M 14.78125 1.421875 "/></g></g></g><g fill="#737373" fill-opacity="1"><g transform="translate(1100.500061, 163.088756)"><g><path d="M 45.484375 0 C 37.992188 0 31.3125 -1.609375 25.4375 -4.828125 C 19.5625 -8.054688 14.914062 -12.394531 11.5 -17.84375 C 8.09375 -23.289062 6.390625 -29.425781 6.390625 -36.25 C 6.390625 -43.070312 8.09375 -49.207031 11.5 -54.65625 C 14.914062 -60.101562 19.5625 -64.4375 25.4375 -67.65625 C 31.3125 -70.875 37.992188 -72.484375 45.484375 -72.484375 L 54.015625 -72.484375 L 54.015625 -61.265625 L 45.0625 -61.265625 C 40.226562 -61.265625 35.890625 -60.148438 32.046875 -57.921875 C 28.210938 -55.691406 25.179688 -52.679688 22.953125 -48.890625 C 20.722656 -45.097656 19.609375 -40.882812 19.609375 -36.25 C 19.609375 -31.601562 20.722656 -27.382812 22.953125 -23.59375 C 25.179688 -19.800781 28.210938 -16.789062 32.046875 -14.5625 C 35.890625 -12.34375 40.226562 -11.234375 45.0625 -11.234375 L 54.015625 -11.234375 L 54.015625 0 Z M 45.484375 0 "/></g></g></g><g fill="#737373" fill-opacity="1"><g transform="translate(1159.05778, 163.088756)"><g><path d="M 10.375 0 L 10.375 -103.765625 L 23.453125 -103.765625 L 23.453125 0 Z M 10.375 0 "/></g></g></g></g></g></g></g></g></svg>